PathFileType	4	(X/Y/Z)	C:/Users/beibeiliu/ov580/test_trc/User1\sequence.12_training_dense_right.trc
DataRate	CameraRate	NumFrames	NumMarkers	Units	OrigDataRate	OrigDataStartFrame	OrigNumFrames
120	120	23	19	mm	120	115	304
Frame#	Time	ThumbCMC			ThumbMCP			ThumbIP			ThumbTip			IndexMCP			IndexPIP			IndexTip			MiddleMCP			MiddlePIP			MiddleTip			RingMCP			RingPIP			RingTip			PinkyMCP			PinkyPIP			PinkyTip			BackHand1			BackHand2			BackHand3	
		X0	Y0	Z0	X1	Y1	Z1	X2	Y2	Z2	X3	Y3	Z3	X4	Y4	Z4	X5	Y5	Z5	X6	Y6	Z6	X7	Y7	Z7	X8	Y8	Z8	X9	Y9	Z9	X10	Y10	Z10	X11	Y11	Z11	X12	Y12	Z12	X13	Y13	Z13	X14	Y14	Z14	X15	Y15	Z15	X16	Y16	Z16	X17	Y17	Z17	X18	Y18	Z18	
114	0.95	138.311	90.259	17.6955	113.596	81.2856	4.25746	95.7028	80.6928	-14.2249	75.3133	77.9444	-32.7699	171.036	87.2018	-56.0602	172.083	86.7206	-87.766	165.096	73.1758	-113.989	203.749	65.7298	-56.2449	207.824	62.4675	-86.4186	203.936	46.8854	-115.376	207.932	46.6105	-49.7716	214.929	32.6541	-80.1773	207.237	17.3361	-98.2735	207.023	12.235	-27.3661	203.263	-4.39115	-49.2781	193.357	-17.7176	-66.6935	203.236	55.5774	5.095	202.4	64.7658	32.5498	178.917	86.382	13.9319	
115	0.958333	131.011	81.9333	24.7077	105.524	68.9713	9.86752	86.2463	65.7852	-6.63465	69.563	56.4235	-22.777	162.853	81.9871	-52.8677	160.763	84.392	-86.2433	152.227	72.1465	-113.976	193.729	71.6723	-55.705	203.456	65.505	-89.9137	199.1	51.4584	-119.841	207	48.7326	-45.0035	213.16	42.6892	-77.5852	210.486	22.9936	-98.7278	210.393	19.9134	-29.7167	210.28	3.70582	-49.4504	204.891	-10.0967	-68.708	199.486	60.2533	4.93104	199.072	68.2336	35.3746	175.546	85.6814	12.017	
116	0.966667	129.705	72.4356	23.7067	103.052	55.6025	12.8784	80.5922	50.2644	-1.39293	65.8591	39.6621	-11.7193	153.68	76.5778	-51.8345	149.034	78.9347	-85.5667	147.497	63.3679	-112.42	185.055	72.0213	-57.3935	195.339	66.0566	-89.2742	196.808	52.0506	-117.087	203.517	52.9956	-49.149	212.784	45.8225	-76.7422	210.649	28.1705	-97.2421	212.757	25.1949	-30.0452	218.304	11.059	-44.361	213.925	-6.04848	-68.1466	195.711	63.2103	0.205528	196.667	74.2178	36.8665	166.341	85.8203	14.8975	
117	0.975	127.707	64.9177	26.3331	102.152	46.5213	19.3966	84.8634	35.3527	3.05215	62.618	24.2535	-5.78387	144.073	71.5586	-53.2555	141.145	70.2716	-81.7263	140.616	57.3003	-109.062	179.709	68.3774	-56.2297	184.855	66.9893	-84.0627	190.379	51.837	-116.377	202.585	52.7712	-46.8398	209.047	46.7337	-75.6375	208.988	28.9354	-100.979	217.781	24.8604	-28.5799	222.932	14.3173	-42.504	224.679	-3.12512	-66.8922	192.66	64.0165	0.573342	197.38	72.2152	36.0387	162.495	80.3133	10.6911	
118	0.983333	124.192	62.7512	30.0559	103.317	38.6318	18.2792	83.5688	27.7822	9.88041	65.3674	14.2146	-0.672121	141.536	64.4176	-48.6448	137.912	63.7433	-78.8925	135.667	51.3172	-106.537	175.294	63.795	-53.4253	181.28	62.848	-84.4467	189.383	47.972	-114.719	201.746	51.712	-48.908	209.061	43.7702	-78.2348	207.645	29.5063	-99.9322	216.079	27.7852	-23.9093	227.98	11.1345	-41.7854	231.359	2.08143	-61.2128	193.303	65.0393	2.93714	195.825	74.0379	34.5863	161.308	79.6313	10.5811	
119	0.991667	124.375	57.5482	29.3303	103.405	34.1553	21.8561	86.854	20.7274	10.9337	69.2268	5.25949	4.14412	140.01	59.6236	-47.6	139.259	56.932	-79.9485	136.81	45.437	-104.838	175.136	62.1638	-57.0836	180.052	58.4124	-86.8523	187.872	44.0428	-112.621	196.623	50.3044	-46.5938	207.794	42.1823	-78.1018	207.112	27.7875	-97.019	218.721	27.4813	-21.7466	227.658	13.2019	-41.7811	235.982	3.92574	-60.8139	190.352	63.1833	3.63406	191.891	75.869	30.9244	156.805	75.997	11.974	
120	1	123.095	56.2682	30.0775	101.924	30.9292	21.346	87.3173	15.1552	10.9939	71.0572	-0.191401	5.68237	141.454	56.0614	-53.262	136.736	53.3627	-79.9883	137.996	40.8189	-104.115	172.13	59.1216	-59.1962	179.878	55.2624	-85.466	185.394	40.6816	-115.612	197.459	48.4385	-47.4884	207.271	41.9742	-75.808	210.192	24.6506	-97.0744	219.493	27.0195	-22.6417	228.903	16.16	-37.9722	239.354	5.3107	-60.2175	189.118	62.4502	-1.64945	190.603	77.6893	33.2264	157.516	76.4459	10.5251	
121	1.00833	123.224	54.3433	29.0582	106.714	29.5155	27.0716	88.1278	11.1698	11.313	72.6072	-4.93575	7.56619	142.271	52.3368	-50.0744	135.082	47.994	-81.8199	136.872	34.7471	-106.978	175.96	55.6799	-54.7674	178.587	52.7279	-86.3378	186.29	33.8587	-117.589	200.398	47.6592	-46.9489	208.193	38.1226	-77.7874	207.565	20.7137	-99.619	220.68	26.482	-24.7505	228.653	16.6335	-39.6595	241.758	5.52315	-59.028	190.741	62.8214	-1.06449	193.38	75.4021	30.6078	160.35	72.7724	9.33753	
122	1.01667	122.592	52.9845	28.3804	105.805	26.774	26.3513	91.1093	8.77906	13.4741	77.4937	-9.26077	4.79448	139.432	49.6613	-52.2547	135.853	44.162	-81.9433	135.462	31.7886	-101.945	173.979	54.0263	-54.932	180.692	48.3429	-85.914	184.208	30.3889	-116.632	200.79	46.4232	-48.8261	207.317	37.2017	-78.0638	211.66	17.1899	-98.4412	219.844	25.7074	-27.9289	229.184	16.3338	-38.2735	245.033	1.7808	-56.9027	193.279	63.3061	-2.50238	194.326	77.4826	32.9123	155.527	75.0958	12.0844	
123	1.025	123.542	53.092	30.058	105.101	24.5193	23.8263	94.1297	8.07279	14.2242	75.1442	-11.9832	9.13603	139.607	47.8366	-51.5814	135.988	42.2114	-79.3501	138.447	24.811	-106.972	176.012	52.2658	-57.2125	179.706	45.1834	-89.1854	184.028	27.7995	-115.324	200.234	46.541	-51.0453	206.581	36.0054	-78.1336	212.342	16.3927	-95.6533	223.296	28.1512	-22.809	235.338	12.7054	-37.9302	246.988	3.8027	-55.1245	194.005	63.7257	-1.20535	192.133	79.8447	30.6321	156.128	73.1153	11.1335	
124	1.03333	125.616	50.5945	27.5629	108.996	24.7051	24.5818	93.1557	4.08018	13.9391	81.3026	-15.3755	6.93637	139.742	45.4721	-54.2393	137.56	37.8085	-81.0478	137.228	21.2504	-104.01	172.494	51.8772	-61.0699	181.431	45.3023	-86.4221	188.119	25.2198	-115.632	201.778	45.8534	-48.8898	210.02	36.8027	-76.6494	212.427	15.1845	-96.8512	226.198	27.2194	-24.0522	236.222	13.8995	-36.4516	245.541	4.25246	-53.7262	190.253	62.6889	-2.18408	186.779	80.4652	30.0929	153.17	72.3446	9.43678	
125	1.04167	124.259	51.2295	28.3515	106.935	21.936	23.8971	95.1449	3.02836	14.8033	81.3743	-17.8201	6.48743	140.423	43.8165	-50.7707	136.628	36.5496	-79.0226	139.171	16.5548	-104.657	176.046	52.0101	-57.7379	178.283	43.9275	-91.3976	190.086	22.4387	-116.364	198.303	47.2	-50.0671	211.776	36.0682	-78.2498	213.732	17.3655	-94.2058	221.168	31.0007	-23.3109	233.204	20.2706	-34.3988	246.014	8.09784	-51.6147	192.274	66.9133	-3.13095	188.428	80.8575	28.1539	152.933	71.6671	7.99693	
126	1.05	124.779	49.2902	26.7194	109.404	22.1337	24.097	94.3147	1.65718	13.8348	85.8986	-18.5355	8.05491	139.194	42.1226	-51.2845	140.884	32.7381	-82.9919	145.392	14.2528	-104.218	176.737	52.5198	-60.6579	182.541	43.3512	-90.1829	192.971	23.0042	-113.203	202.679	49.1607	-50.3612	210.593	38.6505	-76.1553	220.085	16.6736	-94.3205	224.518	34.1646	-21.6405	238.726	21.4417	-32.1147	249.171	10.2998	-51.8832	187.856	67.8303	-3.9822	188.554	84.212	27.7153	152.15	73.4827	5.50752	
127	1.05833	123.498	48.9202	25.5303	111.536	19.9032	20.1489	97.3101	0.440658	14.1332	86.2611	-20.9219	6.30255	144.815	41.0515	-54.0667	139.131	31.1869	-83.4992	144.022	10.516	-105.336	174.183	52.0819	-59.7269	185.009	42.5199	-90.9824	193.596	20.6945	-115.226	199.355	49.5126	-50.0198	214.11	38.215	-78.8273	222.164	17.8931	-92.2147	229.512	34.8561	-23.9038	241.16	21.0507	-35.0725	254.2	10.678	-50.9395	190.504	66.9244	-4.11213	183.654	83.6168	30.3917	154.589	72.0044	9.30072	
128	1.06667	121.02	50.6246	26.7038	110.877	23.3983	23.0875	97.8059	1.07075	11.8408	83.9861	-21.8837	4.24521	143.057	41.5455	-55.0421	144.696	32.7137	-81.3223	147.603	11.216	-102.668	176.274	52.0349	-57.2541	183.509	43.5764	-91.9938	194.655	19.2144	-115.35	200.61	50.6958	-51.8643	213.39	38.986	-78.8861	220.683	14.7941	-94.0428	230.598	35.2489	-22.25	239.408	24.5083	-34.2787	249.68	9.35431	-50.113	191.139	66.6752	-4.90418	187.141	86.0154	26.8071	154.596	72.8246	8.92213	
129	1.075	125.162	51.5565	23.0289	109.018	24.9335	18.8946	93.4508	4.879	10.6051	82.2123	-16.0423	5.30604	147.788	42.0599	-58.4738	143.818	32.4407	-82.7783	148.555	9.92323	-103.094	178.445	52.1596	-61.912	188.82	41.5566	-91.3565	194.025	15.9229	-115.058	202.528	48.7493	-49.0071	214.867	38.5484	-74.5398	222.616	10.6648	-91.3733	225.298	34.2489	-21.3064	243.597	16.6741	-31.8871	253.289	-0.233009	-46.3839	191.544	66.7766	-3.20179	186.058	83.9766	29.2013	154.554	74.3862	5.99208	
130	1.08333	126.431	59.2498	23.2803	104.118	31.4188	16.9176	92.3633	11.3758	5.74808	80.1551	-7.05716	1.80087	148.726	44.0098	-55.8855	144.539	33.2785	-82.4631	150.925	10.5182	-102.483	186.116	48.7664	-60.837	190.931	35.6996	-90.6259	196.204	12.407	-110	206.888	43.5435	-47.5836	216.08	28.8765	-74.7963	219.798	1.61083	-89.2575	225.725	26.128	-21.389	239.097	11.3662	-27.8889	247.398	-10.9235	-45.4559	192.491	65.5978	-3.58474	194.627	82.2398	28.5239	160.085	75.0119	4.97833	
131	1.09167	129.632	65.6411	18.9672	106.491	44.5612	18.0432	86.8328	24.3846	4.4496	73.9807	9.4382	-0.125318	148.347	46.6274	-54.2185	148.451	35.5087	-82.3677	145.279	11.8769	-101.257	187.035	44.3659	-55.3304	193.454	28.5369	-89.0405	198.726	1.19683	-107.407	207.718	35.7543	-43.3163	215.744	19.161	-71.2826	215.746	-10.6915	-83.3146	224.285	18.0959	-16.7326	232.699	-4.14213	-27.0929	236.819	-25.07	-39.448	196.199	61.5304	-0.0388951	199.209	79.6758	24.1656	166.474	76.8053	1.91028	
132	1.1	131.802	78.0184	20.6597	106.387	58.9646	14.9372	85.755	41.9842	-0.239489	72.8805	26.7165	-5.74811	157.302	46.2187	-54.7075	154.589	33.8652	-82.3877	143.934	10.7983	-104.495	187.423	40.9858	-56.2785	195.087	20.7365	-86.2919	194.245	-5.67777	-101.999	207.69	26.3858	-42.8982	212.343	9.00276	-66.9875	204.289	-20.2467	-79.6251	218.605	9.76501	-11.4743	222.252	-16.3671	-25.0257	216.419	-36.942	-35.6553	203.658	57.1718	0.792236	207.113	74.107	29.7964	173.392	81.4011	4.73048	
133	1.10833	140.736	87.4488	16.8575	113.139	69.5218	7.02016	93.6822	59.3637	-3.13792	73.1947	48.2728	-11.1407	158.569	49.9246	-59.1625	154.097	34.8613	-84.4068	146.821	9.56607	-102.919	193.598	30.6973	-55.3927	192.254	15.9242	-81.6022	187.932	-15.1808	-98.505	206.589	16.4921	-38.6773	209.022	-5.46122	-61.6793	197.65	-31.2077	-71.7361	213.092	-3.65239	-8.13794	210.913	-28.9584	-18.6597	199.51	-44.6133	-31.0893	204.757	48.2939	1.53612	209.38	68.9112	25.407	180.719	79.2424	2.08831	
134	1.11667	154.233	90.4307	14.0903	122.94	82.6689	6.15019	96.0773	79.9531	-9.51985	75.7002	71.111	-19.1727	166.469	48.6965	-58.5093	157.611	38.6901	-84.3237	143.883	15.1089	-103.507	192.4	27.89	-56.0593	191.32	5.99428	-80.9568	177.483	-24.7261	-97.5227	201.32	10.3116	-39.2839	199.316	-12.2313	-59.9213	178.901	-36.7174	-73.1411	202.44	-7.13916	-6.10053	194.288	-33.1734	-18.0974	181.275	-50.5013	-28.8913	206.987	45.0809	3.58727	213.96	61.8073	32.2007	192.971	75.5074	3.90284	
135	1.125	162.947	95.8721	9.80614	130.721	96.3171	2.10516	106.748	94.5522	-14.2627	87.3077	87.9672	-23.7192	169.769	53.1588	-58.8001	163.972	36.251	-84.2445	148.523	17.6203	-101.971	194.052	21.4257	-55.6099	189.192	2.18675	-79.5747	172.964	-20.7282	-95.0808	197.462	3.31858	-40.4825	189.343	-19.0728	-60.7299	171.449	-36.7548	-68.3182	192.575	-12.1753	-5.2314	181.451	-37.2757	-13.8873	164.957	-52.7606	-25.124	206.926	36.1545	2.25147	219.192	56.4638	31.4115	197.361	71.3255	0.162399	
136	1.13333	172.667	99.3639	11.8099	141.991	98.9143	-0.181092	120.015	101.569	-15.1516	98.0992	101.451	-27.2926	176.012	50.2206	-57.3288	166.493	42.4556	-85.2449	147.28	21.5162	-103.494	192.253	20.3857	-54.3291	185.841	4.93435	-78.9857	165.948	-18.9763	-94.3887	193.334	1.17712	-35.6023	183.012	-19.3016	-57.0104	160.172	-36.5224	-69.5769	184.341	-13.7761	-5.40006	167.861	-34.3798	-11.8002	149.26	-46.8824	-25.7162	208.313	32.5786	1.90727	220.386	47.7089	33.9424	204.993	68.9576	0.289606	
